<svg width="548" height="40" viewBox="0 0 548 40" fill="none" xmlns="http://www.w3.org/2000/svg">
<path d="M13 18C13 8.61116 20.6112 1 30 1H530C539.389 1 547 8.61116 547 18C547 27.3888 539.389 35 530 35H30C20.6112 35 13 27.3888 13 18Z" fill="#FB7100" stroke="black" stroke-width="2"/>
<g style="mix-blend-mode:color-burn">
<path d="M0.5 22C0.5 12.335 8.33502 4.5 18 4.5H518C527.665 4.5 535.5 12.335 535.5 22C535.5 31.665 527.665 39.5 518 39.5H18C8.33502 39.5 0.5 31.665 0.5 22Z" fill="#FB7100"/>
<path d="M0.5 22C0.5 12.335 8.33502 4.5 18 4.5H518C527.665 4.5 535.5 12.335 535.5 22C535.5 31.665 527.665 39.5 518 39.5H18C8.33502 39.5 0.5 31.665 0.5 22Z" stroke="black"/>
</g>
</svg>
