<svg width="261" height="98" viewBox="0 0 261 98" fill="none" xmlns="http://www.w3.org/2000/svg">
<path d="M0 13C0 9.68629 2.68629 7 6 7H182C185.314 7 188 9.68629 188 13V49C188 52.3137 185.314 55 182 55H6C2.68629 55 0 52.3137 0 49V13Z" fill="#C65959"/>
<path d="M9.5 6C9.5 2.96243 11.9624 0.5 15 0.5H173C176.038 0.5 178.5 2.96243 178.5 6V38C178.5 41.0376 176.038 43.5 173 43.5H15C11.9624 43.5 9.5 41.0376 9.5 38V6Z" stroke="black"/>
<path d="M169.642 87.358C168.674 87.358 167.796 87.1757 167.007 86.8111C166.218 86.4399 165.592 85.9062 165.128 85.2102C164.664 84.5076 164.432 83.6591 164.432 82.6648C164.432 81.7898 164.604 81.0805 164.949 80.5369C165.294 79.9867 165.754 79.5559 166.331 79.2443C166.908 78.9328 167.544 78.7008 168.24 78.5483C168.943 78.3892 169.649 78.2633 170.358 78.1705C171.286 78.0511 172.038 77.9616 172.615 77.902C173.198 77.8357 173.623 77.7263 173.888 77.5739C174.16 77.4214 174.295 77.1562 174.295 76.7784V76.6989C174.295 75.7178 174.027 74.9555 173.49 74.4119C172.96 73.8684 172.154 73.5966 171.074 73.5966C169.954 73.5966 169.075 73.8419 168.439 74.3324C167.803 74.8229 167.355 75.3466 167.097 75.9034L164.869 75.108C165.267 74.1799 165.797 73.4574 166.46 72.9403C167.13 72.4167 167.859 72.0521 168.648 71.8466C169.443 71.6345 170.225 71.5284 170.994 71.5284C171.485 71.5284 172.048 71.5881 172.685 71.7074C173.328 71.8201 173.947 72.0554 174.544 72.4134C175.147 72.7713 175.648 73.3116 176.045 74.0341C176.443 74.7566 176.642 75.7244 176.642 76.9375V87H174.295V84.9318H174.176C174.017 85.2633 173.752 85.6179 173.381 85.9957C173.009 86.3736 172.516 86.6951 171.899 86.9602C171.283 87.2254 170.53 87.358 169.642 87.358ZM170 85.25C170.928 85.25 171.71 85.0677 172.347 84.7031C172.99 84.3385 173.473 83.8679 173.798 83.2912C174.13 82.7145 174.295 82.108 174.295 81.4716V79.3239C174.196 79.4432 173.977 79.5526 173.639 79.652C173.308 79.7448 172.923 79.8277 172.486 79.9006C172.055 79.9669 171.634 80.0265 171.223 80.0795C170.819 80.1259 170.491 80.1657 170.239 80.1989C169.629 80.2784 169.059 80.4077 168.528 80.5866C168.005 80.759 167.58 81.0208 167.256 81.3722C166.938 81.7169 166.778 82.1875 166.778 82.7841C166.778 83.5994 167.08 84.2159 167.683 84.6335C168.293 85.0445 169.065 85.25 170 85.25ZM177.743 87V66.6364H180.09V74.1534H180.289C180.461 73.8883 180.7 73.5502 181.005 73.1392C181.316 72.7216 181.76 72.3504 182.337 72.0256C182.92 71.6941 183.709 71.5284 184.703 71.5284C185.989 71.5284 187.123 71.8499 188.104 72.4929C189.085 73.1359 189.851 74.0473 190.401 75.2273C190.951 76.4072 191.226 77.7992 191.226 79.4034C191.226 81.0208 190.951 82.4228 190.401 83.6094C189.851 84.7893 189.088 85.7041 188.114 86.3537C187.14 86.9967 186.016 87.3182 184.743 87.3182C183.762 87.3182 182.977 87.1558 182.387 86.831C181.797 86.4995 181.343 86.125 181.025 85.7074C180.706 85.2831 180.461 84.9318 180.289 84.6534H180.01V87H177.743ZM180.05 79.3636C180.05 80.517 180.219 81.5346 180.557 82.4162C180.895 83.2912 181.389 83.9773 182.039 84.4744C182.688 84.965 183.484 85.2102 184.425 85.2102C185.406 85.2102 186.225 84.9517 186.881 84.4347C187.544 83.911 188.041 83.2083 188.373 82.3267C188.711 81.4384 188.88 80.4508 188.88 79.3636C188.88 78.2898 188.714 77.322 188.382 76.4602C188.058 75.5919 187.564 74.9058 186.901 74.402C186.245 73.8916 185.419 73.6364 184.425 73.6364C183.471 73.6364 182.668 73.8783 182.019 74.3622C181.369 74.8395 180.879 75.509 180.547 76.3707C180.216 77.2259 180.05 78.2235 180.05 79.3636ZM198.92 87.3182C197.541 87.3182 196.332 86.9901 195.291 86.3338C194.257 85.6776 193.448 84.7595 192.865 83.5795C192.288 82.3996 192 81.0208 192 79.4432C192 77.8523 192.288 76.4635 192.865 75.277C193.448 74.0904 194.257 73.169 195.291 72.5128C196.332 71.8565 197.541 71.5284 198.92 71.5284C200.299 71.5284 201.505 71.8565 202.54 72.5128C203.58 73.169 204.389 74.0904 204.966 75.277C205.549 76.4635 205.841 77.8523 205.841 79.4432C205.841 81.0208 205.549 82.3996 204.966 83.5795C204.389 84.7595 203.58 85.6776 202.54 86.3338C201.505 86.9901 200.299 87.3182 198.92 87.3182ZM198.92 85.2102C199.968 85.2102 200.829 84.9418 201.505 84.4048C202.182 83.8679 202.682 83.1619 203.007 82.2869C203.332 81.4119 203.494 80.464 203.494 79.4432C203.494 78.4223 203.332 77.4711 203.007 76.5895C202.682 75.7079 202.182 74.9953 201.505 74.4517C200.829 73.9081 199.968 73.6364 198.92 73.6364C197.873 73.6364 197.011 73.9081 196.335 74.4517C195.659 74.9953 195.158 75.7079 194.834 76.5895C194.509 77.4711 194.346 78.4223 194.346 79.4432C194.346 80.464 194.509 81.4119 194.834 82.2869C195.158 83.1619 195.659 83.8679 196.335 84.4048C197.011 84.9418 197.873 85.2102 198.92 85.2102ZM216.668 80.7557V71.7273H219.014V87H216.668V84.4148H216.509C216.151 85.1903 215.594 85.8499 214.838 86.3935C214.083 86.9304 213.128 87.1989 211.975 87.1989C211.02 87.1989 210.172 86.9901 209.429 86.5724C208.687 86.1482 208.103 85.5118 207.679 84.6634C207.255 83.8082 207.043 82.7311 207.043 81.4318V71.7273H209.389V81.2727C209.389 82.3864 209.701 83.2746 210.324 83.9375C210.954 84.6004 211.756 84.9318 212.73 84.9318C213.314 84.9318 213.907 84.7827 214.51 84.4844C215.12 84.1861 215.63 83.7287 216.041 83.1122C216.459 82.4957 216.668 81.7102 216.668 80.7557ZM227.714 71.7273V73.7159H219.8V71.7273H227.714ZM222.106 68.0682H224.453V82.625C224.453 83.2879 224.549 83.785 224.741 84.1165C224.94 84.4413 225.192 84.66 225.497 84.7727C225.809 84.8788 226.137 84.9318 226.481 84.9318C226.74 84.9318 226.952 84.9186 227.118 84.892C227.283 84.8589 227.416 84.8324 227.515 84.8125L227.993 86.9205C227.834 86.9801 227.612 87.0398 227.327 87.0994C227.041 87.1657 226.68 87.1989 226.243 87.1989C225.58 87.1989 224.93 87.0563 224.294 86.7713C223.664 86.4863 223.14 86.0521 222.723 85.4688C222.312 84.8854 222.106 84.1496 222.106 83.2614V68.0682ZM243.844 80.7557V71.7273H246.191V87H243.844V84.4148H243.685C243.327 85.1903 242.77 85.8499 242.015 86.3935C241.259 86.9304 240.304 87.1989 239.151 87.1989C238.196 87.1989 237.348 86.9901 236.605 86.5724C235.863 86.1482 235.28 85.5118 234.855 84.6634C234.431 83.8082 234.219 82.7311 234.219 81.4318V71.7273H236.566V81.2727C236.566 82.3864 236.877 83.2746 237.5 83.9375C238.13 84.6004 238.932 84.9318 239.907 84.9318C240.49 84.9318 241.083 84.7827 241.686 84.4844C242.296 84.1861 242.807 83.7287 243.218 83.1122C243.635 82.4957 243.844 81.7102 243.844 80.7557ZM258.507 75.1477L256.399 75.7443C256.266 75.393 256.071 75.0516 255.812 74.7202C255.56 74.3821 255.216 74.1037 254.778 73.8849C254.341 73.6662 253.781 73.5568 253.098 73.5568C252.163 73.5568 251.384 73.7723 250.761 74.2031C250.145 74.6274 249.836 75.1676 249.836 75.8239C249.836 76.4072 250.049 76.8679 250.473 77.206C250.897 77.544 251.56 77.8258 252.461 78.0511L254.728 78.608C256.094 78.9394 257.111 79.4465 257.781 80.1293C258.451 80.8054 258.785 81.6771 258.785 82.7443C258.785 83.6193 258.533 84.4015 258.03 85.0909C257.532 85.7803 256.836 86.3239 255.942 86.7216C255.047 87.1193 254.006 87.3182 252.819 87.3182C251.262 87.3182 249.972 86.9801 248.951 86.304C247.931 85.6278 247.284 84.6402 247.013 83.3409L249.24 82.7841C249.452 83.6061 249.853 84.2225 250.443 84.6335C251.04 85.0445 251.818 85.25 252.78 85.25C253.873 85.25 254.742 85.018 255.385 84.554C256.034 84.0833 256.359 83.5199 256.359 82.8636C256.359 82.3333 256.174 81.8892 255.802 81.5312C255.431 81.1667 254.861 80.8949 254.092 80.7159L251.547 80.1193C250.148 79.7879 249.12 79.2741 248.464 78.5781C247.815 77.8755 247.49 76.9972 247.49 75.9432C247.49 75.0814 247.732 74.3191 248.216 73.6562C248.706 72.9934 249.372 72.473 250.214 72.0952C251.063 71.7173 252.024 71.5284 253.098 71.5284C254.609 71.5284 255.796 71.8598 256.657 72.5227C257.526 73.1856 258.142 74.0606 258.507 75.1477Z" fill="black"/>
<path d="M212.5 30.5C234.5 30.9999 242 28.5 241 64.0001" stroke="black" stroke-width="15"/>
<circle cx="201.5" cy="30.5" r="7" stroke="black" stroke-width="3"/>
</svg>
