<svg width="170" height="147" viewBox="0 0 170 147" fill="none" xmlns="http://www.w3.org/2000/svg">
<path d="M9.30976 87.2915C25.6249 102.811 74.9677 131.063 97.6493 133.053C117.557 134.799 150.971 156.133 152.165 139.818C153.359 123.503 181.214 90.077 161.317 78.5371C141.421 66.9973 110.781 73.762 103.22 78.5371C95.6597 83.3122 54.2754 59.4367 51.4899 64.6097C48.7045 69.7827 49.8983 55.0595 54.2755 40.3363C54.2755 36.7549 63.8258 20.8379 51.4899 6.91046C53.0816 15.2669 45.5211 39.9383 38.7564 40.3363C32.3237 40.7147 14.3769 39.8208 16.736 32.8098C8.11148 51.4205 -9.39257 82.1184 9.30976 87.2915Z" fill="#FDB868"/>
<path d="M51.4899 6.91046C30.7981 -10.9962 28.808 16.8586 22.0433 23.6234C20.8359 24.8307 19.147 27.7111 17.2681 31.6743C17.0924 32.045 16.9149 32.4237 16.736 32.8098C14.3769 39.8208 32.3237 40.7147 38.7564 40.3363C45.5211 39.9383 53.0816 15.2669 51.4899 6.91046Z" fill="#FFF7DB"/>
<path d="M51.4899 6.91046C30.7981 -10.9962 28.808 16.8586 22.0433 23.6234C20.8359 24.8307 19.147 27.7111 17.2681 31.6743M51.4899 6.91046C63.8258 20.8379 54.2755 36.7549 54.2755 40.3363C49.8983 55.0595 48.7045 69.7827 51.4899 64.6097M51.4899 6.91046C53.0816 15.2669 45.5211 39.9383 38.7564 40.3363C32.3237 40.7147 14.3769 39.8208 16.736 32.8098M103.22 78.5371C110.781 73.762 141.421 66.9973 161.317 78.5371C181.214 90.077 153.359 123.503 152.165 139.818C150.971 156.133 117.557 134.799 97.6493 133.053C74.9677 131.063 25.6249 102.811 9.30976 87.2915C-9.39257 82.1184 8.11148 51.4205 16.736 32.8098M103.22 78.5371C95.6597 83.3122 54.2754 59.4367 51.4899 64.6097M103.22 78.5371C105.475 82.3837 107.04 88.2465 101.629 92.0666M51.4899 64.6097C50.2962 69.1195 47.7494 69.1461 45.5211 71.3745M17.2681 31.6743C17.0337 32.0695 16.8578 32.4478 16.736 32.8098M17.2681 31.6743C17.0924 32.045 16.9149 32.4237 16.736 32.8098" stroke="black" stroke-width="2"/>
<path d="M6.68302 78.0529C6.68302 78.3384 6.54146 79.0319 6.91228 79.1143C7.21675 79.182 7.88509 79.0357 7.90572 78.6643C7.94918 77.882 8.0638 76.3717 6.91228 76.3717C4.38421 76.3717 3.956 81.0981 6.37735 81.687C7.76397 82.0243 9.5041 80.9345 10.1643 79.7341C10.8154 78.5503 10.5253 77.1013 9.80769 76.0576C9.05052 74.9562 7.44432 74.4912 6.19055 74.5377C5.17833 74.5752 3.94322 75.6909 3.18475 76.2868C2.03768 77.1881 1.79224 78.568 1.79224 79.9719C1.79224 80.6944 1.55928 81.7779 2.09791 82.3324C2.64648 82.8971 3.61417 83.2907 4.3565 83.5211C5.69833 83.9375 6.78141 84.1664 8.17743 84.1664C9.42555 84.1664 10.8226 82.9138 11.6417 82.0946C12.8865 80.8498 14.1976 79.1424 14.6221 77.3736C14.8292 76.5106 14.9282 75.3674 14.5287 74.5377C14.0307 73.5035 13.0261 72.9317 12.2191 72.2112C11.13 71.2387 9.34106 71.6338 8.05856 71.6338C7.32629 71.6338 5.49406 72.1776 5.15465 72.8565" stroke="black" stroke-linecap="round"/>
<path d="M95.4524 120.838C96.3807 120.838 97.2435 118.985 96.0541 118.985C94.9421 118.985 94.0972 120.688 93.679 121.487C93.285 122.239 93.1723 123.284 93.1723 124.115C93.1723 125.147 94.3622 125.398 95.199 125.398C97.0931 125.398 98.7977 125.721 99.6643 123.751C100.029 122.923 100.91 121.867 100.519 120.869C100.102 119.802 99.0461 118.185 98.0175 117.671C96.8207 117.073 95.5732 116.848 94.249 116.848C93.1702 116.848 92.3293 117.745 91.581 118.431C89.7629 120.098 88.074 122.76 88.5012 125.366C88.8859 127.713 92.0708 128.533 94.0194 128.533C96.2562 128.533 99.4484 128.281 101.01 126.459C102.525 124.692 103.183 122.688 103.765 120.442C104.034 119.405 104.094 118.848 103.464 118.051C102.804 117.215 101.935 116.76 101.073 116.167C99.9934 115.423 99.3081 115.012 98.0096 114.773C96.6755 114.528 95.0391 114.366 93.679 114.583C93.2105 114.658 92.7414 115.068 92.3172 115.28C91.8059 115.536 91.227 115.68 90.7497 115.993C89.5737 116.761 88.6013 117.998 87.6145 118.985C85.909 120.691 85.7619 123.529 85.7619 125.818C85.7619 127.426 86.2891 128.006 87.2503 129.23C88.1205 130.337 89.0573 131.382 90.433 131.811C91.9983 132.298 93.7176 132.238 95.3495 132.238C97.6289 132.238 99.7678 131.987 101.96 131.241C102.673 130.998 108.054 129.408 106.995 127.821" stroke="black" stroke-linecap="round"/>
</svg>
