<svg width="107" height="120" viewBox="0 0 107 120" fill="none" xmlns="http://www.w3.org/2000/svg">
<path d="M52.4804 91.8753C45.3808 91.8753 -9.99637 164.338 10.9476 59.263C13.9901 43.9988 20.5893 21.5013 26.7306 10.3124C32.872 -0.876469 74.5262 -3.27406 83.0707 10.3124C92.4939 25.2962 99.3877 45.932 102.178 56.7321C115.667 108.947 90.1085 131.278 77.2824 111.432C75.8342 109.191 59.5801 91.8753 52.4804 91.8753Z" fill="#FDE3A0" stroke="black"/>
<g style="mix-blend-mode:color-burn">
<path d="M46.0908 90.8104C36.1513 89.7454 -16.031 164.647 4.91294 59.572C7.95547 44.3078 14.7423 22.2112 20.8836 11.0224C27.025 -0.166509 68.6793 -2.5641 77.2237 11.0224C86.647 26.0062 93.5408 46.642 96.3309 57.4421C109.82 109.657 84.2616 131.988 71.4355 112.142C69.9873 109.901 56.0303 91.8753 46.0908 90.8104Z" fill="#FDE3A0"/>
</g>
</svg>
