<svg width="250" height="102" viewBox="0 0 250 102" fill="none" xmlns="http://www.w3.org/2000/svg">
<path d="M7 7.49953C25 -5.0005 80.6696 4.3944 109 7.49953C145.5 11.5001 161.541 23.7547 181 22.4993C227.5 19.4996 222 -1.4173 240.5 22.4993C263.95 52.8157 229.007 92.1941 213 98.5C196.5 105 194.717 89.0189 159 81.4994C140 77.4993 139.678 87.4287 122.5 93C104 99 58.5 70 30.5 81.4994C2.50002 92.9987 12.9999 68 21.5 50C30 32 -13.9811 22.0698 7 7.49953Z" fill="#FFF7DB" stroke="black" stroke-width="2"/>
<path d="M53.8161 66.8159C51.8214 66.8159 49.9174 66.6346 48.1041 66.2719C46.2908 65.9092 44.5908 65.3652 43.0041 64.6399C41.4628 63.9146 40.0574 62.9399 38.7881 61.7159L42.3921 54.9159L42.6641 54.3719L43.2761 54.7119C43.3668 55.0292 43.4801 55.3919 43.6161 55.7999C43.7974 56.1626 44.1601 56.5932 44.7041 57.0919C45.8828 58.0439 47.2201 58.7919 48.7161 59.3359C50.2121 59.8346 51.9348 60.0839 53.8841 60.0839C55.0174 60.0839 55.9694 59.9706 56.7401 59.7439C57.5561 59.4719 58.1908 59.1092 58.6441 58.6559C59.0974 58.1572 59.3241 57.6359 59.3241 57.0919C59.3241 56.5932 59.1654 56.1626 58.8481 55.7999C58.5761 55.4372 58.1454 55.1199 57.5561 54.8479C56.9668 54.5306 56.2188 54.2359 55.3121 53.9639C54.4054 53.6466 53.3174 53.3066 52.0481 52.9439C49.7361 52.3546 47.7414 51.6292 46.0641 50.7679C44.3868 49.8612 43.0948 48.7732 42.1881 47.5039C41.2814 46.2346 40.8281 44.7159 40.8281 42.9479C40.8281 41.1799 41.3494 39.5932 42.3921 38.1879C43.4801 36.7372 44.9761 35.5812 46.8801 34.7199C48.8294 33.8586 51.0734 33.4279 53.6121 33.4279C54.8814 33.4279 56.1054 33.5412 57.2841 33.7679C58.5081 33.9492 59.6414 34.2439 60.6841 34.6519C61.7721 35.0146 62.7921 35.5132 63.7441 36.1479C64.6961 36.7372 65.6028 37.4399 66.4641 38.2559L62.3841 44.1039L61.9761 44.6479L61.3641 44.1719C61.3188 43.8092 61.2054 43.4692 61.0241 43.1519C60.8881 42.8346 60.5708 42.4266 60.0721 41.9279C59.1654 41.2932 58.1681 40.8399 57.0801 40.5679C55.9921 40.2959 54.8814 40.1599 53.7481 40.1599C52.3428 40.1599 51.0961 40.3866 50.0081 40.8399C48.9654 41.2932 48.4441 41.9732 48.4441 42.8799C48.4441 43.4239 48.6934 43.9226 49.1921 44.3759C49.7361 44.7839 50.5521 45.1692 51.6401 45.5319C52.7734 45.8946 54.2014 46.3026 55.9241 46.7559C58.5081 47.3452 60.5934 48.0932 62.1801 48.9999C63.8121 49.9066 65.0134 50.9946 65.7841 52.2639C66.5548 53.5332 66.9401 55.0066 66.9401 56.6839C66.9401 58.4972 66.4188 60.1746 65.3761 61.7159C64.3788 63.2572 62.9054 64.5039 60.9561 65.4559C59.0068 66.3626 56.6268 66.8159 53.8161 66.8159ZM69.2521 65.9999V59.1999H76.9361V40.9079H69.5921V34.1759H85.6401V59.1999H92.6441V65.9999H69.2521ZM80.8801 29.3479C79.4294 29.3479 78.1828 28.8719 77.1401 27.9199C76.1428 26.9226 75.6441 25.7439 75.6441 24.3839C75.6441 22.9332 76.1201 21.7319 77.0721 20.7799C78.0694 19.8279 79.3388 19.3519 80.8801 19.3519C82.2854 19.3519 83.5094 19.8506 84.5521 20.8479C85.6401 21.8452 86.1841 23.0239 86.1841 24.3839C86.1841 25.7439 85.6401 26.9226 84.5521 27.9199C83.5094 28.8719 82.2854 29.3479 80.8801 29.3479ZM108.488 78.3079C106.221 78.3079 104.204 78.1039 102.436 77.6959C100.668 77.2879 99.1494 76.6986 97.8801 75.9279C96.6561 75.2026 95.7268 74.3186 95.0921 73.2759C94.4574 72.2332 94.1401 71.0999 94.1401 69.8759C94.1401 68.8332 94.4121 67.8359 94.9561 66.8839C95.5001 65.9772 96.2481 65.1612 97.2001 64.4359C98.1521 63.7106 99.1721 63.1439 100.26 62.7359L104.204 64.2319C103.66 64.6399 103.093 65.0479 102.504 65.4559C101.915 65.8639 101.416 66.2946 101.008 66.7479C100.645 67.2466 100.464 67.8132 100.464 68.4479C100.464 69.0372 100.691 69.5132 101.144 69.8759C101.597 70.2839 102.232 70.6012 103.048 70.8279C103.864 71.0999 104.793 71.2812 105.836 71.3719C106.879 71.5079 108.035 71.5759 109.304 71.5759C110.936 71.5759 112.319 71.4399 113.452 71.1679C114.585 70.8959 115.447 70.5106 116.036 70.0119C116.671 69.5132 116.988 68.9239 116.988 68.2439C116.988 67.6546 116.807 67.1786 116.444 66.8159C116.081 66.4986 115.469 66.2492 114.608 66.0679C113.747 65.9319 112.545 65.8639 111.004 65.8639C109.553 65.8639 108.103 65.8186 106.652 65.7279C105.247 65.5919 103.887 65.3652 102.572 65.0479C101.303 64.7306 100.147 64.2999 99.1041 63.7559C98.0614 63.2119 97.2454 62.5546 96.6561 61.7839C96.1121 60.9679 95.8401 59.9706 95.8401 58.7919C95.8401 57.2052 96.3161 55.8679 97.2681 54.7799C98.2201 53.6466 99.3534 52.6719 100.668 51.8559L104.544 53.8959C104.136 54.2586 103.751 54.5759 103.388 54.8479C103.025 55.0746 102.731 55.3012 102.504 55.5279C102.277 55.7546 102.164 56.0946 102.164 56.5479C102.164 57.0012 102.549 57.4092 103.32 57.7719C104.091 58.1346 105.292 58.4066 106.924 58.5879C108.601 58.7239 110.777 58.7919 113.452 58.7919C115.356 58.7919 116.965 59.0186 118.28 59.4719C119.64 59.9252 120.728 60.5599 121.544 61.3759C122.36 62.1919 122.949 63.1212 123.312 64.1639C123.72 65.1612 123.924 66.2492 123.924 67.4279C123.924 68.7879 123.607 70.1026 122.972 71.3719C122.383 72.6866 121.453 73.8652 120.184 74.9079C118.915 75.9506 117.305 76.7666 115.356 77.3559C113.407 77.9906 111.117 78.3079 108.488 78.3079ZM108.148 55.3239C105.927 55.3239 103.887 54.8479 102.028 53.8959C100.215 52.8986 98.7641 51.5839 97.6761 49.9519C96.6334 48.3199 96.1121 46.4839 96.1121 44.4439C96.1121 42.3586 96.6334 40.4772 97.6761 38.7999C98.7641 37.1226 100.215 35.8079 102.028 34.8559C103.887 33.8586 105.927 33.3599 108.148 33.3599C110.415 33.3599 112.455 33.8586 114.268 34.8559C116.081 35.8079 117.509 37.1226 118.552 38.7999C119.64 40.4772 120.184 42.3586 120.184 44.4439C120.184 46.4839 119.64 48.3199 118.552 49.9519C117.509 51.5839 116.081 52.8986 114.268 53.8959C112.455 54.8479 110.415 55.3239 108.148 55.3239ZM108.08 49.2039C108.987 49.2039 109.803 49.0226 110.528 48.6599C111.253 48.2519 111.82 47.6852 112.228 46.9599C112.636 46.1892 112.84 45.3506 112.84 44.4439C112.84 43.4919 112.636 42.6759 112.228 41.9959C111.82 41.3159 111.231 40.7946 110.46 40.4319C109.735 40.0239 108.941 39.8199 108.08 39.8199C107.309 39.8199 106.561 40.0239 105.836 40.4319C105.156 40.8399 104.567 41.3839 104.068 42.0639C103.615 42.7439 103.388 43.5372 103.388 44.4439C103.388 45.3052 103.592 46.0986 104 46.8239C104.453 47.5492 105.02 48.1386 105.7 48.5919C106.425 48.9999 107.219 49.2039 108.08 49.2039ZM118.212 40.2279L114.948 36.1479C116.217 35.2412 117.691 34.5386 119.368 34.0399C121.091 33.4959 122.904 33.2919 124.808 33.4279L125.556 39.0719C124.241 38.7999 122.927 38.7772 121.612 39.0039C120.297 39.1852 119.164 39.5932 118.212 40.2279ZM128.072 65.9999V34.1759H136.776V38.1879C137.547 37.2359 138.34 36.4199 139.156 35.7399C139.972 35.0146 140.901 34.4479 141.944 34.0399C142.987 33.6319 144.143 33.4279 145.412 33.4279C147.271 33.4279 149.016 33.8812 150.648 34.7879C152.28 35.6946 153.595 37.1452 154.592 39.1399C155.589 41.0892 156.088 43.6506 156.088 46.8239V65.9999H147.384V46.8919C147.384 45.3052 147.225 43.9906 146.908 42.9479C146.591 41.9052 146.115 41.1346 145.48 40.6359C144.845 40.1372 144.052 39.8879 143.1 39.8879C142.284 39.8879 141.491 40.0466 140.72 40.3639C139.995 40.6812 139.337 41.1572 138.748 41.7919C138.159 42.3812 137.683 43.1066 137.32 43.9679C136.957 44.7839 136.776 45.7359 136.776 46.8239V65.9999H128.072ZM176.692 66.8159C175.377 66.8159 174.153 66.6346 173.02 66.2719C171.887 65.9546 170.844 65.4559 169.892 64.7759C168.985 64.0959 168.192 63.2346 167.512 62.1919C166.877 61.1039 166.379 59.8119 166.016 58.3159C165.653 56.8199 165.472 55.1199 165.472 53.2159V34.1759H174.176V53.2159C174.176 54.4399 174.267 55.4826 174.448 56.3439C174.675 57.1599 174.969 57.8399 175.332 58.3839C175.74 58.9279 176.193 59.3359 176.692 59.6079C177.191 59.8346 177.735 59.9479 178.324 59.9479C179.231 59.9479 180.047 59.7892 180.772 59.4719C181.497 59.1546 182.109 58.7012 182.608 58.1119C183.152 57.4772 183.537 56.7066 183.764 55.7999C184.036 54.8479 184.172 53.7372 184.172 52.4679V34.1759H192.876V60.8999C192.876 61.9426 192.899 62.8719 192.944 63.6879C193.035 64.4586 193.239 65.2292 193.556 65.9999H185.736C185.509 65.5466 185.351 65.1159 185.26 64.7079C185.169 64.2546 185.101 63.8239 185.056 63.4159C185.056 62.9626 185.056 62.5319 185.056 62.1239C184.603 62.8946 184.059 63.5746 183.424 64.1639C182.789 64.7532 182.109 65.2519 181.384 65.6599C180.659 66.0226 179.888 66.2946 179.072 66.4759C178.301 66.7026 177.508 66.8159 176.692 66.8159ZM196.752 77.3559L196.684 34.1079H205.184V37.9839C205.955 36.8959 206.771 36.0346 207.632 35.3999C208.539 34.7199 209.513 34.2212 210.556 33.9039C211.599 33.5866 212.709 33.4279 213.888 33.4279C215.611 33.4279 217.22 33.7906 218.716 34.5159C220.212 35.2412 221.527 36.3292 222.66 37.7799C223.793 39.1852 224.677 40.9306 225.312 43.0159C225.947 45.1012 226.264 47.5266 226.264 50.2919C226.264 53.0572 225.924 55.4826 225.244 57.5679C224.564 59.6532 223.635 61.3986 222.456 62.8039C221.323 64.1639 219.985 65.1839 218.444 65.8639C216.948 66.4986 215.384 66.8159 213.752 66.8159C212.664 66.8159 211.599 66.7026 210.556 66.4759C209.513 66.2492 208.539 65.9092 207.632 65.4559C206.771 65.0026 206.045 64.4359 205.456 63.7559V77.3559H196.752ZM211.168 60.2879C212.165 60.2879 213.049 60.1066 213.82 59.7439C214.636 59.3812 215.339 58.8146 215.928 58.0439C216.517 57.2279 216.971 56.1399 217.288 54.7799C217.605 53.3746 217.764 51.6972 217.764 49.7479C217.764 47.7532 217.492 46.0306 216.948 44.5799C216.449 43.1292 215.724 42.0186 214.772 41.2479C213.865 40.4772 212.777 40.0919 211.508 40.0919C210.511 40.0919 209.627 40.2959 208.856 40.7039C208.085 41.0666 207.451 41.6786 206.952 42.5399C206.453 43.3559 206.068 44.4439 205.796 45.8039C205.569 47.1186 205.456 48.6826 205.456 50.4959C205.456 51.8106 205.524 53.0119 205.66 54.0999C205.841 55.1426 206.068 56.0492 206.34 56.8199C206.657 57.5906 207.043 58.2479 207.496 58.7919C207.949 59.2906 208.471 59.6759 209.06 59.9479C209.695 60.1746 210.397 60.2879 211.168 60.2879Z" fill="black"/>
</svg>
