<svg width="140" height="72" viewBox="0 0 140 72" fill="none" xmlns="http://www.w3.org/2000/svg">
<path d="M0.5 19C0.5 15.9624 2.96243 13.5 6 13.5H134C137.038 13.5 139.5 15.9624 139.5 19V66C139.5 69.0376 137.038 71.5 134 71.5H6C2.96244 71.5 0.5 69.0376 0.5 66V19Z" fill="#FDE068" stroke="black"/>
<path d="M0.5 6C0.5 2.96244 2.96243 0.5 6 0.5H134C137.038 0.5 139.5 2.96243 139.5 6V53C139.5 56.0376 137.038 58.5 134 58.5H6C2.96244 58.5 0.5 56.0376 0.5 53V6Z" stroke="black"/>
<path d="M36.555 42.3C35.795 42.3 35.065 42.22 34.365 42.06C33.685 41.9 33.035 41.66 32.415 41.34C31.815 41.02 31.255 40.62 30.735 40.14L31.935 38.1L32.115 37.83L32.295 37.95C32.335 38.11 32.375 38.28 32.415 38.46C32.475 38.62 32.615 38.82 32.835 39.06C33.255 39.48 33.755 39.83 34.335 40.11C34.935 40.37 35.695 40.5 36.615 40.5C37.355 40.5 37.975 40.41 38.475 40.23C38.995 40.05 39.395 39.8 39.675 39.48C39.955 39.14 40.095 38.75 40.095 38.31C40.095 38.01 40.035 37.75 39.915 37.53C39.795 37.29 39.595 37.07 39.315 36.87C39.055 36.67 38.705 36.47 38.265 36.27C37.825 36.07 37.285 35.87 36.645 35.67C35.605 35.37 34.695 35.02 33.915 34.62C33.135 34.22 32.535 33.76 32.115 33.24C31.695 32.7 31.485 32.09 31.485 31.41C31.485 30.71 31.675 30.11 32.055 29.61C32.435 29.09 32.995 28.69 33.735 28.41C34.495 28.11 35.425 27.96 36.525 27.96C37.165 27.96 37.745 28.01 38.265 28.11C38.785 28.19 39.265 28.32 39.705 28.5C40.145 28.68 40.545 28.91 40.905 29.19C41.285 29.45 41.645 29.76 41.985 30.12L40.755 31.62L40.545 31.86L40.395 31.71C40.375 31.55 40.325 31.4 40.245 31.26C40.185 31.1 40.045 30.91 39.825 30.69C39.365 30.33 38.845 30.06 38.265 29.88C37.685 29.68 37.125 29.58 36.585 29.58C35.785 29.58 35.095 29.72 34.515 30C33.935 30.28 33.645 30.71 33.645 31.29C33.645 31.59 33.745 31.89 33.945 32.19C34.165 32.47 34.555 32.76 35.115 33.06C35.675 33.34 36.475 33.63 37.515 33.93C38.655 34.29 39.565 34.66 40.245 35.04C40.945 35.4 41.445 35.82 41.745 36.3C42.065 36.78 42.225 37.35 42.225 38.01C42.225 38.77 42.015 39.48 41.595 40.14C41.195 40.8 40.575 41.33 39.735 41.73C38.895 42.11 37.835 42.3 36.555 42.3ZM43.125 42V40.26H46.635V30.03H43.305V28.29H48.795V40.26H52.005V42H43.125ZM47.595 25.41C47.175 25.41 46.815 25.26 46.515 24.96C46.215 24.66 46.065 24.3 46.065 23.88C46.065 23.44 46.205 23.07 46.485 22.77C46.785 22.47 47.155 22.32 47.595 22.32C48.015 22.32 48.375 22.48 48.675 22.8C48.995 23.1 49.155 23.46 49.155 23.88C49.155 24.3 48.995 24.66 48.675 24.96C48.375 25.26 48.015 25.41 47.595 25.41ZM59.085 47.16C58.125 47.16 57.255 47.08 56.475 46.92C55.715 46.78 55.055 46.56 54.495 46.26C53.955 45.98 53.535 45.62 53.235 45.18C52.955 44.74 52.815 44.22 52.815 43.62C52.815 43.06 52.935 42.56 53.175 42.12C53.415 41.68 53.725 41.32 54.105 41.04C54.505 40.74 54.935 40.52 55.395 40.38L56.295 40.92C55.935 41.14 55.645 41.36 55.425 41.58C55.205 41.8 55.045 42.05 54.945 42.33C54.845 42.63 54.795 42.98 54.795 43.38C54.795 43.72 54.895 44.02 55.095 44.28C55.295 44.56 55.575 44.79 55.935 44.97C56.315 45.15 56.765 45.29 57.285 45.39C57.825 45.49 58.435 45.54 59.115 45.54C60.035 45.54 60.775 45.44 61.335 45.24C61.915 45.06 62.345 44.8 62.625 44.46C62.905 44.14 63.045 43.77 63.045 43.35C63.045 42.91 62.965 42.55 62.805 42.27C62.645 41.99 62.315 41.78 61.815 41.64C61.315 41.5 60.555 41.43 59.535 41.43C58.835 41.43 58.195 41.4 57.615 41.34C57.035 41.28 56.515 41.18 56.055 41.04C55.595 40.9 55.205 40.73 54.885 40.53C54.585 40.31 54.355 40.05 54.195 39.75C54.035 39.45 53.955 39.1 53.955 38.7C53.955 38.18 54.095 37.68 54.375 37.2C54.675 36.72 55.075 36.26 55.575 35.82L56.595 36.63C56.395 36.85 56.235 37.05 56.115 37.23C55.995 37.39 55.905 37.55 55.845 37.71C55.805 37.85 55.785 38.01 55.785 38.19C55.785 38.51 55.905 38.77 56.145 38.97C56.405 39.17 56.845 39.32 57.465 39.42C58.085 39.5 58.925 39.54 59.985 39.54C61.045 39.54 61.905 39.63 62.565 39.81C63.225 39.97 63.725 40.21 64.065 40.53C64.425 40.85 64.675 41.22 64.815 41.64C64.955 42.06 65.025 42.52 65.025 43.02C65.025 43.56 64.915 44.07 64.695 44.55C64.495 45.05 64.165 45.49 63.705 45.87C63.245 46.27 62.635 46.58 61.875 46.8C61.115 47.04 60.185 47.16 59.085 47.16ZM58.455 37.35C57.475 37.35 56.625 37.14 55.905 36.72C55.185 36.28 54.625 35.7 54.225 34.98C53.845 34.24 53.655 33.43 53.655 32.55C53.655 31.67 53.845 30.87 54.225 30.15C54.625 29.43 55.185 28.86 55.905 28.44C56.625 28 57.475 27.78 58.455 27.78C59.455 27.78 60.305 28 61.005 28.44C61.725 28.86 62.275 29.43 62.655 30.15C63.055 30.87 63.255 31.67 63.255 32.55C63.255 33.43 63.055 34.24 62.655 34.98C62.275 35.7 61.725 36.28 61.005 36.72C60.305 37.14 59.455 37.35 58.455 37.35ZM58.455 35.55C59.035 35.55 59.545 35.42 59.985 35.16C60.445 34.88 60.805 34.51 61.065 34.05C61.325 33.59 61.455 33.09 61.455 32.55C61.455 31.99 61.325 31.49 61.065 31.05C60.805 30.59 60.445 30.23 59.985 29.97C59.545 29.69 59.035 29.55 58.455 29.55C57.875 29.55 57.355 29.69 56.895 29.97C56.455 30.23 56.105 30.59 55.845 31.05C55.585 31.49 55.455 31.99 55.455 32.55C55.455 33.09 55.585 33.59 55.845 34.05C56.105 34.51 56.455 34.88 56.895 35.16C57.355 35.42 57.875 35.55 58.455 35.55ZM62.445 30.51L61.605 29.52C62.185 28.94 62.785 28.52 63.405 28.26C64.045 27.98 64.795 27.87 65.655 27.93L65.925 29.7C65.265 29.64 64.645 29.66 64.065 29.76C63.485 29.86 62.945 30.11 62.445 30.51ZM67.185 42V28.29H69.285V30.72C69.645 30.16 70.065 29.68 70.545 29.28C71.025 28.86 71.555 28.54 72.135 28.32C72.715 28.08 73.315 27.96 73.935 27.96C74.695 27.96 75.375 28.15 75.975 28.53C76.575 28.91 77.055 29.52 77.415 30.36C77.775 31.2 77.955 32.31 77.955 33.69V42H75.855V33.75C75.855 32.79 75.745 32.03 75.525 31.47C75.305 30.89 75.005 30.48 74.625 30.24C74.245 29.98 73.815 29.85 73.335 29.85C72.875 29.85 72.405 29.95 71.925 30.15C71.465 30.35 71.035 30.64 70.635 31.02C70.235 31.38 69.905 31.82 69.645 32.34C69.405 32.86 69.285 33.45 69.285 34.11V42H67.185ZM87.255 42.33C86.715 42.33 86.205 42.25 85.725 42.09C85.245 41.93 84.805 41.69 84.405 41.37C84.025 41.03 83.695 40.61 83.415 40.11C83.135 39.61 82.915 39.01 82.755 38.31C82.615 37.61 82.545 36.82 82.545 35.94L82.575 28.29H84.675V35.94C84.675 36.8 84.755 37.53 84.915 38.13C85.075 38.73 85.295 39.21 85.575 39.57C85.875 39.93 86.215 40.19 86.595 40.35C86.975 40.51 87.375 40.59 87.795 40.59C88.275 40.59 88.735 40.5 89.175 40.32C89.615 40.12 90.005 39.83 90.345 39.45C90.705 39.07 90.985 38.58 91.185 37.98C91.385 37.38 91.485 36.67 91.485 35.85V28.29H93.585V39.87C93.585 40.23 93.595 40.59 93.615 40.95C93.655 41.29 93.745 41.64 93.885 42H91.815C91.715 41.76 91.645 41.53 91.605 41.31C91.565 41.07 91.535 40.83 91.515 40.59C91.515 40.35 91.515 40.12 91.515 39.9C91.295 40.28 91.035 40.62 90.735 40.92C90.435 41.22 90.095 41.48 89.715 41.7C89.355 41.9 88.965 42.05 88.545 42.15C88.145 42.27 87.715 42.33 87.255 42.33ZM95.775 47.01V28.29H97.965V30.99C98.185 30.29 98.495 29.72 98.895 29.28C99.315 28.84 99.795 28.52 100.335 28.32C100.895 28.1 101.495 27.99 102.135 27.99C102.895 27.99 103.615 28.14 104.295 28.44C104.995 28.72 105.605 29.15 106.125 29.73C106.665 30.31 107.085 31.04 107.385 31.92C107.705 32.8 107.865 33.84 107.865 35.04C107.865 36.24 107.695 37.3 107.355 38.22C107.035 39.14 106.595 39.91 106.035 40.53C105.495 41.13 104.875 41.59 104.175 41.91C103.495 42.21 102.795 42.36 102.075 42.36C101.535 42.36 101.005 42.27 100.485 42.09C99.985 41.93 99.525 41.69 99.105 41.37C98.685 41.03 98.315 40.64 97.995 40.2V47.01H95.775ZM101.715 40.44C102.195 40.44 102.665 40.36 103.125 40.2C103.585 40.02 104.005 39.73 104.385 39.33C104.765 38.93 105.065 38.39 105.285 37.71C105.505 37.01 105.615 36.15 105.615 35.13C105.615 34.03 105.475 33.1 105.195 32.34C104.915 31.56 104.505 30.96 103.965 30.54C103.445 30.12 102.805 29.89 102.045 29.85C101.485 29.81 100.955 29.89 100.455 30.09C99.975 30.29 99.545 30.62 99.165 31.08C98.785 31.54 98.485 32.15 98.265 32.91C98.065 33.65 97.965 34.55 97.965 35.61C97.985 36.25 98.055 36.83 98.175 37.35C98.295 37.87 98.465 38.33 98.685 38.73C98.905 39.11 99.165 39.43 99.465 39.69C99.765 39.93 100.105 40.12 100.485 40.26C100.865 40.38 101.275 40.44 101.715 40.44Z" fill="black"/>
</svg>
