<svg width="347" height="39" viewBox="0 0 347 39" fill="none" xmlns="http://www.w3.org/2000/svg">
<path d="M13 17.5C13 8.3873 20.3873 1 29.5 1H329.5C338.613 1 346 8.3873 346 17.5C346 26.6127 338.613 34 329.5 34H29.5C20.3873 34 13 26.6127 13 17.5Z" fill="#FB7100" stroke="black" stroke-width="2"/>
<g style="mix-blend-mode:color-burn">
<path d="M0.5 21.5C0.5 12.1112 8.11116 4.5 17.5 4.5H317.5C326.889 4.5 334.5 12.1112 334.5 21.5C334.5 30.8888 326.889 38.5 317.5 38.5H17.5C8.11117 38.5 0.5 30.8888 0.5 21.5Z" fill="#FB7100"/>
<path d="M0.5 21.5C0.5 12.1112 8.11116 4.5 17.5 4.5H317.5C326.889 4.5 334.5 12.1112 334.5 21.5C334.5 30.8888 326.889 38.5 317.5 38.5H17.5C8.11117 38.5 0.5 30.8888 0.5 21.5Z" stroke="black"/>
</g>
</svg>
