<svg width="1440" height="1024" viewBox="0 0 1440 1024" fill="none" xmlns="http://www.w3.org/2000/svg">
<rect width="1440" height="1034" fill="#FDE3A0"/>
<path d="M-79 -13H-82V-10V1012V1015H-79H1167.5C1236.12 1015 1276.82 1006.06 1301.46 982.676C1326.09 959.305 1333.93 922.169 1338.99 868.28L1339 868.14V868C1339 793.329 1328.77 752.624 1301.29 731.077C1287.58 720.332 1269.9 714.61 1247.89 711.537C1225.9 708.465 1199.27 708 1167.5 708H925C893.206 708 869.502 694.514 853.674 674.306C837.784 654.02 829.75 626.831 829.75 599.5C829.75 572.17 837.784 544.981 853.674 524.694C869.502 504.487 893.206 491 925 491C957.968 491 978.609 487.072 993.564 481.015C1006.85 475.637 1015.5 468.618 1024.02 461.705C1025.09 460.831 1026.17 459.959 1027.25 459.092C1036.85 451.397 1047.3 443.831 1065.4 438.127C1083.59 432.394 1109.66 428.5 1150.5 428.5C1200.96 428.5 1243.34 424.306 1273.06 404.171C1303.1 383.82 1319.5 347.747 1319.5 286C1319.5 224.308 1304.65 187.196 1268.06 165.967C1249.96 155.47 1226.78 149.005 1197.99 145.144C1169.19 141.281 1134.57 140 1093.5 140H621C566.713 140 536.412 143.367 518.516 148.556C509.518 151.165 503.524 154.27 499.169 157.74C494.802 161.218 492.256 164.932 490.04 168.377C489.824 168.712 489.611 169.044 489.402 169.372C487.442 172.436 485.704 175.153 482.982 177.739C480.021 180.551 475.77 183.303 468.652 185.722C454.259 190.613 428.598 194 379.5 194C367.753 194 358.6 190.928 351.188 185.66C343.734 180.362 337.854 172.709 332.916 163.266C324.959 148.05 319.715 128.789 314.142 108.319C312.739 103.168 311.316 97.9399 309.824 92.6809C302.477 66.7965 293.483 40.3612 276.826 20.4205C260.01 0.289848 235.583 -13 198 -13H-79Z" fill="#030022" stroke="#FDE3A0" stroke-width="6"/>
<path d="M-19.5 23H489.75H999C1163.14 23 1222 43.5 1222 166C1222 288.5 1139.06 305.5 971 305.5C807 305.5 920 305.5 789 305.5C658 305.5 658 591 789 591C1010.62 591 1114 591 1202.5 591C1329.67 591 1403.14 609.5 1403.14 759C1393 867 1339.7 892 1202.5 892C831.5 892 -44 892 -44 892" stroke="#FDE3A0" stroke-width="4"/>
<line y1="-0.5" x2="391.623" y2="-0.5" transform="matrix(0.999985 0.00542967 -0.0494344 0.998777 222 15)" stroke="black"/>
<line y1="-0.5" x2="391.623" y2="-0.5" transform="matrix(0.999985 0.00542967 -0.0494344 0.998777 222 83.6064)" stroke="black"/>
<line y1="-0.5" x2="391.623" y2="-0.5" transform="matrix(0.999985 0.00542967 -0.0494344 0.998777 222 157.573)" stroke="black"/>
<line y1="-0.5" x2="391.623" y2="-0.5" transform="matrix(0.999985 0.00542967 -0.0494344 0.998777 222 224.035)" stroke="black"/>
<line y1="-0.5" x2="391.623" y2="-0.5" transform="matrix(0.999985 0.00542967 -0.0494344 0.998777 222 298.002)" stroke="black"/>
<line y1="-0.5" x2="391.623" y2="-0.5" transform="matrix(0.999985 0.00542967 -0.0494344 0.998777 222 371.968)" stroke="black"/>
<line y1="-0.5" x2="391.623" y2="-0.5" transform="matrix(0.999985 0.00542967 -0.0494344 0.998777 222 445.934)" stroke="black"/>
<line y1="-0.5" x2="391.623" y2="-0.5" transform="matrix(0.999985 0.00542967 -0.0494344 0.998777 222 514.541)" stroke="black"/>
<line y1="-0.5" x2="391.623" y2="-0.5" transform="matrix(0.999985 0.00542967 -0.0494344 0.998777 222 49.3032)" stroke="black"/>
<line y1="-0.5" x2="391.623" y2="-0.5" transform="matrix(0.999985 0.00542967 -0.0494344 0.998777 222 117.91)" stroke="black"/>
<line y1="-0.5" x2="391.623" y2="-0.5" transform="matrix(0.999985 0.00542967 -0.0494344 0.998777 222 191.876)" stroke="black"/>
<line y1="-0.5" x2="391.623" y2="-0.5" transform="matrix(0.999985 0.00542967 -0.0494344 0.998777 222 258.338)" stroke="black"/>
<line y1="-0.5" x2="391.623" y2="-0.5" transform="matrix(0.999985 0.00542967 -0.0494344 0.998777 222 332.305)" stroke="black"/>
<line y1="-0.5" x2="391.623" y2="-0.5" transform="matrix(0.999985 0.00542967 -0.0494344 0.998777 222 406.271)" stroke="black"/>
<line y1="-0.5" x2="391.623" y2="-0.5" transform="matrix(0.999985 0.00542967 -0.0494344 0.998777 222 480.237)" stroke="black"/>
</svg>
