<svg width="87" height="36" viewBox="0 0 87 36" fill="none" xmlns="http://www.w3.org/2000/svg">
<rect x="0.5" y="0.5" width="86" height="35" rx="9.5" fill="#C65959" stroke="black"/>
<rect x="8.5" y="4.5" width="70" height="27" rx="9.5" stroke="black"/>
<path d="M11.756 25.392C10.6173 25.392 9.558 25.098 8.578 24.51C7.60733 23.9127 6.81867 23.0773 6.212 22.004C5.61467 20.9213 5.316 19.652 5.316 18.196C5.316 16.656 5.61467 15.354 6.212 14.29C6.81867 13.2167 7.60733 12.4047 8.578 11.854C9.558 11.3033 10.6173 11.028 11.756 11.028C12.6427 11.028 13.422 11.1727 14.094 11.462C14.7753 11.742 15.354 12.1247 15.83 12.61C16.306 13.086 16.6793 13.618 16.95 14.206C17.2207 14.794 17.3933 15.3867 17.468 15.984L14.136 16.068C13.9867 15.4707 13.7067 14.976 13.296 14.584C12.8947 14.192 12.372 13.996 11.728 13.996C11.196 13.996 10.6967 14.1453 10.23 14.444C9.76333 14.7333 9.38067 15.186 9.082 15.802C8.79267 16.418 8.648 17.216 8.648 18.196C8.648 19.1293 8.78333 19.9087 9.054 20.534C9.334 21.15 9.70733 21.6167 10.174 21.934C10.6407 22.242 11.1587 22.396 11.728 22.396C12.568 22.396 13.1793 22.1953 13.562 21.794C13.9447 21.3833 14.136 20.8373 14.136 20.156H17.468C17.468 21.1173 17.2487 21.9947 16.81 22.788C16.3713 23.5813 15.7273 24.216 14.878 24.692C14.0287 25.1587 12.988 25.392 11.756 25.392ZM17.9243 25V5.792H21.2283V25H17.9243ZM24.0476 8.928C23.4036 8.928 22.8996 8.76 22.5356 8.424C22.1809 8.07867 22.0036 7.60267 22.0036 6.996C22.0036 6.408 22.1809 5.94133 22.5356 5.596C22.8996 5.24133 23.4036 5.064 24.0476 5.064C24.6822 5.064 25.1816 5.24133 25.5456 5.596C25.9096 5.94133 26.0916 6.408 26.0916 6.996C26.0916 7.60267 25.9096 8.07867 25.5456 8.424C25.1816 8.76 24.6822 8.928 24.0476 8.928ZM22.3956 25V11.364H25.6996V25H22.3956ZM32.9551 25.392C31.8164 25.392 30.7571 25.098 29.7771 24.51C28.8064 23.9127 28.0177 23.0773 27.4111 22.004C26.8137 20.9213 26.5151 19.652 26.5151 18.196C26.5151 16.656 26.8137 15.354 27.4111 14.29C28.0177 13.2167 28.8064 12.4047 29.7771 11.854C30.7571 11.3033 31.8164 11.028 32.9551 11.028C33.8417 11.028 34.6211 11.1727 35.2931 11.462C35.9744 11.742 36.5531 12.1247 37.0291 12.61C37.5051 13.086 37.8784 13.618 38.1491 14.206C38.4197 14.794 38.5924 15.3867 38.6671 15.984L35.3351 16.068C35.1857 15.4707 34.9057 14.976 34.4951 14.584C34.0937 14.192 33.5711 13.996 32.9271 13.996C32.3951 13.996 31.8957 14.1453 31.4291 14.444C30.9624 14.7333 30.5797 15.186 30.2811 15.802C29.9917 16.418 29.8471 17.216 29.8471 18.196C29.8471 19.1293 29.9824 19.9087 30.2531 20.534C30.5331 21.15 30.9064 21.6167 31.3731 21.934C31.8397 22.242 32.3577 22.396 32.9271 22.396C33.7671 22.396 34.3784 22.1953 34.7611 21.794C35.1437 21.3833 35.3351 20.8373 35.3351 20.156H38.6671C38.6671 21.1173 38.4477 21.9947 38.0091 22.788C37.5704 23.5813 36.9264 24.216 36.0771 24.692C35.2277 25.1587 34.1871 25.392 32.9551 25.392ZM39.1234 25V5.792H42.4274V25H39.1234ZM41.9794 16.572L47.8034 11.42H52.2834L41.9794 19.988V16.572ZM48.5874 25L42.5114 16.348L45.6474 15.592L52.6194 25H48.5874ZM56.8417 25.392C55.6844 25.392 54.625 25.0933 53.6637 24.496C52.7024 23.8987 51.9324 23.0633 51.3537 21.99C50.775 20.9073 50.4857 19.6427 50.4857 18.196C50.4857 16.7027 50.7704 15.4193 51.3397 14.346C51.9184 13.2727 52.6884 12.4513 53.6497 11.882C54.611 11.3127 55.675 11.028 56.8417 11.028C57.9244 11.028 58.8577 11.2473 59.6417 11.686C60.435 12.1153 61.0697 12.7033 61.5457 13.45C62.031 14.1873 62.3577 15.0227 62.5257 15.956C62.6937 16.8893 62.703 17.8507 62.5537 18.84H53.1177V17.048H60.2157L59.5717 17.468C59.5997 17.0293 59.5764 16.586 59.5017 16.138C59.4364 15.69 59.3057 15.2793 59.1097 14.906C58.9137 14.5327 58.6337 14.234 58.2697 14.01C57.915 13.7767 57.4577 13.66 56.8977 13.66C56.2257 13.66 55.6564 13.828 55.1897 14.164C54.723 14.5 54.3684 14.9573 54.1257 15.536C53.883 16.1147 53.7617 16.768 53.7617 17.496V18.812C53.7617 19.5773 53.8737 20.254 54.0977 20.842C54.331 21.43 54.6717 21.892 55.1197 22.228C55.577 22.564 56.151 22.732 56.8417 22.732C57.4857 22.732 58.027 22.5827 58.4657 22.284C58.9044 21.9853 59.1844 21.5373 59.3057 20.94H62.6377C62.4977 21.8173 62.1664 22.592 61.6437 23.264C61.1304 23.9267 60.463 24.4493 59.6417 24.832C58.8204 25.2053 57.887 25.392 56.8417 25.392ZM67.9933 25.392C67.1907 25.392 66.4533 25.2427 65.7813 24.944C65.1187 24.6453 64.5867 24.188 64.1853 23.572C63.7933 22.956 63.5973 22.172 63.5973 21.22V7.808H66.9013V21.108C66.9013 22.228 67.4333 22.788 68.4973 22.788C68.824 22.788 69.1507 22.7507 69.4773 22.676C69.804 22.6013 70.1773 22.4893 70.5973 22.34L71.0733 24.664C70.5507 24.8693 70.042 25.042 69.5473 25.182C69.0527 25.322 68.5347 25.392 67.9933 25.392ZM61.6933 13.604V11.42H70.5973V13.604H61.6933ZM68.3162 11.42H72.0682L75.6802 22.116H75.0922L78.2002 11.42H81.5602L76.3522 27.464C75.8202 29.0693 75.1622 30.2313 74.3782 30.95C73.6036 31.6687 72.6562 32.028 71.5362 32.028C70.8922 32.028 70.2622 31.9533 69.6462 31.804C69.0396 31.664 68.4189 31.44 67.7842 31.132V28.22C68.2976 28.5373 68.7922 28.7707 69.2682 28.92C69.7536 29.0693 70.2389 29.144 70.7242 29.144C71.1629 29.144 71.5456 29.0227 71.8722 28.78C72.2082 28.5467 72.4976 28.2153 72.7402 27.786C72.9829 27.366 73.1882 26.876 73.3562 26.316L73.7762 25L68.3162 11.42Z" fill="white"/>
</svg>
