<svg width="424" height="692" viewBox="0 0 424 692" fill="none" xmlns="http://www.w3.org/2000/svg">
<path d="M386.555 681.424C386.555 686.119 382.749 689.924 378.055 689.924H10C5.30557 689.924 1.49997 686.119 1.49997 681.424L1.49997 10C1.49997 5.30554 5.30557 1.5 9.99997 1.5H378.055C382.749 1.5 386.555 5.30554 386.555 10L386.555 681.424Z" fill="#F0AF4C" stroke="black" stroke-width="3"/>
<line y1="-0.5" x2="295.011" y2="-0.5" transform="matrix(-0.999963 -0.00857928 0.0313084 -0.99951 342.032 582.083)" stroke="black"/>
<line y1="-0.5" x2="295.011" y2="-0.5" transform="matrix(-0.999963 -0.00857928 0.0313084 -0.99951 342.032 513.476)" stroke="black"/>
<line y1="-0.5" x2="295.011" y2="-0.5" transform="matrix(-0.999963 -0.00857928 0.0313084 -0.99951 342.032 439.51)" stroke="black"/>
<line y1="-0.5" x2="295.011" y2="-0.5" transform="matrix(-0.999963 -0.00857928 0.0313084 -0.99951 342.032 373.048)" stroke="black"/>
<line y1="-0.5" x2="295.011" y2="-0.5" transform="matrix(-0.999963 -0.00857928 0.0313084 -0.99951 342.032 299.081)" stroke="black"/>
<line y1="-0.5" x2="295.011" y2="-0.5" transform="matrix(-0.999963 -0.00857928 0.0313084 -0.99951 342.032 225.115)" stroke="black"/>
<line y1="-0.5" x2="295.011" y2="-0.5" transform="matrix(-0.999963 -0.00857928 0.0313084 -0.99951 342.032 151.148)" stroke="black"/>
<line y1="-0.5" x2="295.011" y2="-0.5" transform="matrix(-0.999963 -0.00857928 0.0313084 -0.99951 342.032 82.5422)" stroke="black"/>
<line y1="-0.5" x2="295.011" y2="-0.5" transform="matrix(-0.999963 -0.00857928 0.0313084 -0.99951 342.032 547.78)" stroke="black"/>
<line y1="-0.5" x2="295.011" y2="-0.5" transform="matrix(-0.999963 -0.00857928 0.0313084 -0.99951 342.032 479.173)" stroke="black"/>
<line y1="-0.5" x2="295.011" y2="-0.5" transform="matrix(-0.999963 -0.00857928 0.0313084 -0.99951 342.032 405.207)" stroke="black"/>
<line y1="-0.5" x2="295.011" y2="-0.5" transform="matrix(-0.999963 -0.00857928 0.0313084 -0.99951 342.032 338.744)" stroke="black"/>
<line y1="-0.5" x2="295.011" y2="-0.5" transform="matrix(-0.999963 -0.00857928 0.0313084 -0.99951 342.032 264.778)" stroke="black"/>
<line y1="-0.5" x2="295.011" y2="-0.5" transform="matrix(-0.999963 -0.00857928 0.0313084 -0.99951 342.032 190.812)" stroke="black"/>
<line y1="-0.5" x2="295.011" y2="-0.5" transform="matrix(-0.999963 -0.00857928 0.0313084 -0.99951 342.032 116.845)" stroke="black"/>
<path d="M349.039 628.595C350.132 628.595 351.072 628.735 351.858 629.017C352.645 629.292 353.3 629.656 353.824 630.11C354.342 630.557 354.754 631.037 355.061 631.548L353.258 632.814C353.054 632.545 352.795 632.238 352.482 631.893C352.168 631.542 351.74 631.238 351.197 630.982C350.647 630.72 349.928 630.589 349.039 630.589C347.851 630.589 346.869 630.877 346.096 631.452C345.322 632.027 344.936 632.929 344.936 634.156V637.147H345.127C345.294 636.879 345.53 636.547 345.837 636.15C346.137 635.76 346.572 635.412 347.141 635.105C347.703 634.805 348.464 634.654 349.423 634.654C350.612 634.654 351.679 634.936 352.625 635.498C353.565 636.061 354.31 636.879 354.859 637.953C355.403 639.027 355.674 640.331 355.674 641.865C355.674 643.373 355.409 644.687 354.879 645.805C354.348 646.93 353.61 647.8 352.664 648.413C351.718 649.033 350.625 649.343 349.385 649.343C348.426 649.343 347.665 649.184 347.103 648.864C346.534 648.551 346.099 648.193 345.799 647.79C345.492 647.394 345.255 647.068 345.089 646.812H344.859V649.152H342.673V634.003C342.673 632.737 342.961 631.708 343.536 630.915C344.105 630.116 344.872 629.531 345.837 629.161C346.796 628.783 347.863 628.595 349.039 628.595ZM349.116 636.687C348.208 636.687 347.441 636.895 346.815 637.31C346.189 637.726 345.712 638.324 345.386 639.103C345.06 639.883 344.897 640.816 344.897 641.903C344.897 642.964 345.057 643.901 345.377 644.712C345.696 645.524 346.169 646.16 346.796 646.62C347.422 647.081 348.196 647.311 349.116 647.311C350.075 647.311 350.874 647.068 351.513 646.582C352.146 646.096 352.622 645.444 352.942 644.626C353.255 643.808 353.412 642.9 353.412 641.903C353.412 640.88 353.252 639.976 352.932 639.19C352.606 638.41 352.127 637.796 351.494 637.349C350.855 636.908 350.062 636.687 349.116 636.687ZM334.438 634.118C335.767 634.118 336.934 634.434 337.938 635.067C338.935 635.7 339.715 636.585 340.277 637.723C340.833 638.86 341.111 640.19 341.111 641.711C341.111 643.245 340.833 644.585 340.277 645.729C339.715 646.873 338.935 647.761 337.938 648.394C336.934 649.027 335.767 649.343 334.438 649.343C333.108 649.343 331.945 649.027 330.948 648.394C329.944 647.761 329.165 646.873 328.608 645.729C328.046 644.585 327.765 643.245 327.765 641.711C327.765 640.19 328.046 638.86 328.608 637.723C329.165 636.585 329.944 635.7 330.948 635.067C331.945 634.434 333.108 634.118 334.438 634.118ZM334.438 636.15C333.428 636.15 332.597 636.409 331.945 636.927C331.293 637.445 330.81 638.125 330.497 638.969C330.184 639.813 330.027 640.727 330.027 641.711C330.027 642.696 330.184 643.613 330.497 644.463C330.81 645.313 331.293 646 331.945 646.525C332.597 647.049 333.428 647.311 334.438 647.311C335.448 647.311 336.279 647.049 336.931 646.525C337.583 646 338.065 645.313 338.379 644.463C338.692 643.613 338.848 642.696 338.848 641.711C338.848 640.727 338.692 639.813 338.379 638.969C338.065 638.125 337.583 637.445 336.931 636.927C336.279 636.409 335.448 636.15 334.438 636.15ZM323.938 643.284V634.424H326.201V649.152H324.014V646.851H323.823C323.478 647.598 322.953 648.199 322.25 648.653C321.547 649.113 320.639 649.343 319.527 649.343C318.53 649.343 317.658 649.139 316.91 648.73C316.162 648.327 315.58 647.713 315.165 646.889C314.749 646.071 314.541 645.035 314.541 643.782V634.424H316.804V643.629C316.804 644.786 317.105 645.687 317.706 646.333C318.306 646.985 319.131 647.311 320.179 647.311C320.902 647.311 321.547 647.154 322.116 646.841C322.679 646.528 323.123 646.071 323.449 645.47C323.775 644.869 323.938 644.14 323.938 643.284ZM310.034 643.284V634.424H312.297V649.152H310.111V646.851H309.919C309.574 647.598 309.049 648.199 308.346 648.653C307.643 649.113 306.736 649.343 305.623 649.343C304.626 649.343 303.754 649.139 303.006 648.73C302.258 648.327 301.676 647.713 301.261 646.889C300.845 646.071 300.638 645.035 300.638 643.782V634.424H302.9V643.629C302.9 644.786 303.201 645.687 303.802 646.333C304.402 646.985 305.227 647.311 306.275 647.311C306.998 647.311 307.643 647.154 308.212 646.841C308.775 646.528 309.219 646.071 309.545 645.47C309.871 644.869 310.034 644.14 310.034 643.284ZM294.059 634.079C294.992 634.079 295.839 634.255 296.6 634.607C297.36 634.965 297.964 635.479 298.412 636.15C298.859 636.828 299.083 637.646 299.083 638.605C299.083 639.449 298.917 640.132 298.584 640.657C298.252 641.187 297.808 641.603 297.252 641.903C296.696 642.203 296.082 642.427 295.411 642.574C294.733 642.728 294.052 642.849 293.369 642.939C292.474 643.054 291.748 643.14 291.192 643.197C290.63 643.261 290.22 643.367 289.965 643.514C289.703 643.661 289.572 643.917 289.572 644.281V644.358C289.572 645.304 289.831 646.039 290.348 646.563C290.86 647.087 291.636 647.349 292.678 647.349C293.758 647.349 294.605 647.113 295.219 646.64C295.833 646.167 296.264 645.662 296.513 645.125L298.661 645.892C298.278 646.787 297.766 647.483 297.127 647.982C296.481 648.487 295.778 648.838 295.018 649.037C294.251 649.241 293.496 649.343 292.755 649.343C292.282 649.343 291.739 649.286 291.125 649.171C290.505 649.062 289.907 648.835 289.332 648.49C288.75 648.145 288.268 647.624 287.884 646.927C287.501 646.23 287.309 645.297 287.309 644.128V634.424H289.572V636.419H289.687C289.84 636.099 290.096 635.757 290.454 635.393C290.812 635.028 291.288 634.718 291.882 634.463C292.477 634.207 293.202 634.079 294.059 634.079ZM293.714 636.112C292.819 636.112 292.065 636.288 291.451 636.639C290.831 636.991 290.364 637.445 290.051 638.001C289.731 638.557 289.572 639.142 289.572 639.755V641.826C289.668 641.711 289.878 641.606 290.204 641.51C290.524 641.42 290.895 641.341 291.317 641.27C291.732 641.206 292.138 641.149 292.534 641.098C292.924 641.053 293.241 641.015 293.484 640.983C294.072 640.906 294.621 640.781 295.133 640.609C295.638 640.442 296.047 640.19 296.36 639.851C296.667 639.519 296.82 639.065 296.82 638.49C296.82 637.703 296.529 637.109 295.948 636.706C295.36 636.31 294.615 636.112 293.714 636.112Z" fill="black"/>
<path d="M47.5551 642.424C47.5551 632.746 55.1794 624.924 64.5551 624.924C73.9307 624.924 81.5551 632.746 81.5551 642.424C81.5551 652.103 73.9307 659.924 64.5551 659.924C55.1794 659.924 47.5551 652.103 47.5551 642.424Z" fill="#FFF7DB" stroke="black"/>
<path d="M52.5551 642.424C52.5551 632.746 60.1794 624.924 69.5551 624.924C78.9307 624.924 86.5551 632.746 86.5551 642.424C86.5551 652.103 78.9307 659.924 69.5551 659.924C60.1794 659.924 52.5551 652.103 52.5551 642.424Z" stroke="black"/>
<path d="M67.9926 634.206C69.0238 634.206 69.9431 634.383 70.7504 634.737C71.5524 635.091 72.1905 635.583 72.6644 636.213C73.1332 636.849 73.3884 637.586 73.4301 638.424H71.4613C71.4196 637.909 71.2426 637.463 70.9301 637.088C70.6176 636.719 70.2087 636.432 69.7035 636.229C69.1983 636.026 68.6384 635.924 68.0238 635.924C67.3363 635.924 66.7269 636.044 66.1957 636.284C65.6644 636.523 65.2478 636.857 64.9457 637.284C64.6436 637.711 64.4926 638.206 64.4926 638.768C64.4926 639.357 64.6384 639.875 64.9301 640.323C65.2217 640.776 65.6488 641.13 66.2113 641.385C66.7738 641.641 67.4613 641.768 68.2738 641.768H69.5551V643.487H68.2738C67.6384 643.487 67.0811 643.601 66.6019 643.831C66.1176 644.06 65.7399 644.383 65.4691 644.799C65.1931 645.216 65.0551 645.706 65.0551 646.268C65.0551 646.81 65.1748 647.281 65.4144 647.682C65.654 648.083 65.9926 648.396 66.4301 648.62C66.8623 648.844 67.3728 648.956 67.9613 648.956C68.5134 648.956 69.0342 648.854 69.5238 648.651C70.0082 648.453 70.404 648.164 70.7113 647.784C71.0186 647.409 71.1853 646.956 71.2113 646.424H73.0863C73.0551 647.263 72.8024 647.997 72.3285 648.628C71.8545 649.263 71.2347 649.758 70.4691 650.112C69.6983 650.466 68.8519 650.643 67.9301 650.643C66.9405 650.643 66.0915 650.443 65.3832 650.042C64.6748 649.646 64.1306 649.122 63.7504 648.471C63.3702 647.82 63.1801 647.117 63.1801 646.362C63.1801 645.461 63.417 644.693 63.891 644.057C64.3597 643.422 64.9978 642.982 65.8051 642.737V642.612C64.7946 642.445 64.0056 642.016 63.4379 641.323C62.8702 640.635 62.5863 639.784 62.5863 638.768C62.5863 637.898 62.8233 637.117 63.2972 636.424C63.766 635.737 64.4066 635.195 65.2191 634.799C66.0316 634.404 66.9561 634.206 67.9926 634.206Z" fill="black"/>
<path d="M417.999 283.5C416.499 273 407.499 268.5 393.999 265H387.999V285V296C387.999 296 355 340 352.5 344C350 348 321.668 360 306.501 361.5L291.501 363.5C258.501 367.5 260.001 386 262.501 390C262.117 388.5 262.08 384.6 265.001 381C268.652 376.5 285.002 372 291.501 372C298 372 302.501 369 306.501 378C309.701 385.2 306.501 392 304.501 394.5C319.001 396.062 367.5 376.311 376.5 369.5C395 355.5 406.499 325.5 417.999 317.5C429.499 309.5 419.499 294 417.999 283.5Z" fill="#FDE068"/>
<path d="M262.501 390C266.876 397 272.001 391 304.501 394.5C306.501 392 309.701 385.2 306.501 378C302.501 369 298 372 291.501 372C285.002 372 268.652 376.5 265.001 381C262.08 384.6 262.117 388.5 262.501 390Z" fill="#FFF7DB"/>
<path d="M304.501 394.5C319.001 396.062 367.5 376.311 376.5 369.5C395 355.5 406.499 325.5 417.999 317.5C429.499 309.5 419.499 294 417.999 283.5C416.499 273 407.499 268.5 393.999 265H387.999V285V296C387.999 296 355 340 352.5 344C350 348 321.668 360 306.501 361.5L291.501 363.5C258.501 367.5 260.001 386 262.501 390M304.501 394.5C272.001 391 266.876 397 262.501 390M304.501 394.5C306.501 392 309.701 385.2 306.501 378C302.501 369 298 372 291.501 372C285.002 372 268.652 376.5 265.001 381C262.08 384.6 262.117 388.5 262.501 390" stroke="black"/>
<path d="M418.96 307.582C418.96 309.274 420.636 308.414 420.636 307.088C420.636 305.721 420.07 306.287 419.127 305.868C418.245 305.476 417.694 306.166 417.107 306.753C416.193 307.667 416.278 308.403 416.278 309.602C416.278 312.342 419.816 312.118 421.064 310.514C421.649 309.762 422.479 309.119 422.479 308.047C422.479 306.998 422.589 305.389 421.809 304.565C420.299 302.971 418.644 303.835 416.948 304.732C414.338 306.114 413.094 308.857 413.094 311.771C413.094 313.178 413.382 313.946 414.435 314.788C415 315.24 417.532 315.124 418.187 314.872C418.59 314.717 419.255 314.808 419.593 314.583C420.082 314.257 420.605 313.933 421.138 313.652C421.908 313.247 421.513 312.402 422.144 311.771" stroke="black" stroke-linecap="round"/>
<path d="M373.381 363.984C374.073 364.061 375.855 364.484 376.055 363.585C376.178 363.03 377.072 362.663 377.104 362.123C377.176 360.899 377.205 360.436 376.173 359.863C375.363 359.412 373.134 359.475 372.451 360.158C371.364 361.245 370.457 362.349 370.457 363.925C370.457 366.579 373.499 367.168 375.641 365.978C378.107 364.608 379.88 361.902 380.029 358.932C380.131 356.889 378.203 357.026 376.838 356.48C376.053 356.166 375.289 356.341 374.46 356.258C373.626 356.175 372.874 355.789 372.037 356.155C368.445 357.727 367 361.731 367 365.461C367 369.234 371.622 369.919 374.681 369.154C376.537 368.69 377.22 367.357 378.581 366.244C379.549 365.452 381.092 364.313 381.092 362.92" stroke="black" stroke-linecap="round"/>
<path d="M390.234 289.964C389.867 290.668 389.197 291.386 388.981 292.141C388.852 292.591 388.892 293.053 388.728 293.495C388.482 294.158 388.525 294.905 388.525 295.603C388.525 296.034 388.43 295.742 388.183 295.66" stroke="black" stroke-linecap="round"/>
<path d="M351.686 345.282C352.463 345.282 353.159 345.124 353.906 345.124" stroke="black" stroke-linecap="round"/>
</svg>
