<svg width="140" height="72" viewBox="0 0 140 72" fill="none" xmlns="http://www.w3.org/2000/svg">
<path d="M0.5 19C0.5 15.9624 2.96243 13.5 6 13.5H134C137.038 13.5 139.5 15.9624 139.5 19V66C139.5 69.0376 137.038 71.5 134 71.5H6C2.96244 71.5 0.5 69.0376 0.5 66V19Z" fill="#C65959" stroke="black"/>
<path d="M0.5 6C0.5 2.96244 2.96243 0.5 6 0.5H134C137.038 0.5 139.5 2.96243 139.5 6V53C139.5 56.0376 137.038 58.5 134 58.5H6C2.96244 58.5 0.5 56.0376 0.5 53V6Z" stroke="black"/>
<path d="M49.02 43.3C48.32 43.3 47.63 43.15 46.95 42.85C46.29 42.55 45.68 42.1 45.12 41.5C44.58 40.9 44.15 40.14 43.83 39.22C43.51 38.3 43.35 37.23 43.35 36.01C43.35 34.75 43.52 33.68 43.86 32.8C44.2 31.9 44.65 31.17 45.21 30.61C45.77 30.03 46.39 29.61 47.07 29.35C47.75 29.07 48.44 28.93 49.14 28.93C49.78 28.93 50.35 29.03 50.85 29.23C51.37 29.43 51.82 29.71 52.2 30.07C52.6 30.41 52.91 30.82 53.13 31.3V23.05H55.11H55.41V23.26C55.29 23.38 55.21 23.51 55.17 23.65C55.15 23.79 55.14 24.03 55.14 24.37L55.17 40.87C55.17 41.23 55.18 41.59 55.2 41.95C55.24 42.29 55.33 42.64 55.47 43H53.34C53.24 42.76 53.17 42.52 53.13 42.28C53.09 42.04 53.06 41.81 53.04 41.59C53.04 41.35 53.04 41.11 53.04 40.87C52.76 41.35 52.42 41.78 52.02 42.16C51.62 42.52 51.17 42.8 50.67 43C50.17 43.2 49.62 43.3 49.02 43.3ZM49.35 41.41C50.01 41.41 50.57 41.28 51.03 41.02C51.49 40.74 51.86 40.36 52.14 39.88C52.42 39.38 52.62 38.81 52.74 38.17C52.88 37.51 52.95 36.81 52.95 36.07C52.95 35.05 52.82 34.14 52.56 33.34C52.3 32.52 51.89 31.88 51.33 31.42C50.77 30.94 50.05 30.7 49.17 30.7C48.57 30.7 48.03 30.82 47.55 31.06C47.09 31.28 46.7 31.61 46.38 32.05C46.08 32.49 45.85 33.02 45.69 33.64C45.53 34.24 45.45 34.92 45.45 35.68C45.45 36.82 45.6 37.82 45.9 38.68C46.2 39.54 46.64 40.21 47.22 40.69C47.8 41.17 48.51 41.41 49.35 41.41ZM61.38 43.33C59.82 43.33 58.62 42.98 57.78 42.28C56.94 41.56 56.52 40.65 56.52 39.55C56.52 38.81 56.7 38.15 57.06 37.57C57.42 36.97 57.91 36.47 58.53 36.07C59.17 35.65 59.91 35.33 60.75 35.11C61.59 34.89 62.48 34.78 63.42 34.78C63.76 34.78 64.1 34.79 64.44 34.81C64.8 34.81 65.17 34.83 65.55 34.87C65.95 34.89 66.36 34.93 66.78 34.99L66.84 36.64C66.48 36.58 66.11 36.54 65.73 36.52C65.37 36.48 65.01 36.45 64.65 36.43C64.29 36.41 63.94 36.4 63.6 36.4C62.88 36.4 62.22 36.46 61.62 36.58C61.02 36.7 60.5 36.88 60.06 37.12C59.62 37.36 59.28 37.67 59.04 38.05C58.8 38.43 58.68 38.89 58.68 39.43C58.68 39.85 58.75 40.21 58.89 40.51C59.05 40.79 59.26 41.02 59.52 41.2C59.78 41.36 60.08 41.48 60.42 41.56C60.78 41.64 61.17 41.68 61.59 41.68C62.37 41.68 63.06 41.56 63.66 41.32C64.28 41.06 64.8 40.69 65.22 40.21C65.66 39.73 65.99 39.14 66.21 38.44C66.43 37.74 66.54 36.94 66.54 36.04C66.54 34.68 66.38 33.62 66.06 32.86C65.74 32.1 65.26 31.56 64.62 31.24C64 30.92 63.2 30.76 62.22 30.76C61.56 30.76 60.91 30.89 60.27 31.15C59.63 31.39 59.05 31.77 58.53 32.29L57.48 30.91C58.12 30.27 58.86 29.79 59.7 29.47C60.54 29.15 61.43 28.99 62.37 28.99C63.27 28.99 64.09 29.1 64.83 29.32C65.57 29.54 66.2 29.91 66.72 30.43C67.26 30.93 67.67 31.61 67.95 32.47C68.25 33.33 68.4 34.41 68.4 35.71V43H66.06V40.9C65.8 41.4 65.48 41.81 65.1 42.13C64.74 42.45 64.35 42.7 63.93 42.88C63.51 43.04 63.08 43.15 62.64 43.21C62.2 43.29 61.78 43.33 61.38 43.33ZM75.78 43.3C75.02 43.3 74.29 43.22 73.59 43.06C72.91 42.9 72.26 42.66 71.64 42.34C71.04 42.02 70.48 41.62 69.96 41.14L71.16 39.1L71.34 38.83L71.52 38.95C71.56 39.11 71.6 39.28 71.64 39.46C71.7 39.62 71.84 39.82 72.06 40.06C72.48 40.48 72.98 40.83 73.56 41.11C74.16 41.37 74.92 41.5 75.84 41.5C76.58 41.5 77.2 41.41 77.7 41.23C78.22 41.05 78.62 40.8 78.9 40.48C79.18 40.14 79.32 39.75 79.32 39.31C79.32 39.01 79.26 38.75 79.14 38.53C79.02 38.29 78.82 38.07 78.54 37.87C78.28 37.67 77.93 37.47 77.49 37.27C77.05 37.07 76.51 36.87 75.87 36.67C74.83 36.37 73.92 36.02 73.14 35.62C72.36 35.22 71.76 34.76 71.34 34.24C70.92 33.7 70.71 33.09 70.71 32.41C70.71 31.71 70.9 31.11 71.28 30.61C71.66 30.09 72.22 29.69 72.96 29.41C73.72 29.11 74.65 28.96 75.75 28.96C76.39 28.96 76.97 29.01 77.49 29.11C78.01 29.19 78.49 29.32 78.93 29.5C79.37 29.68 79.77 29.91 80.13 30.19C80.51 30.45 80.87 30.76 81.21 31.12L79.98 32.62L79.77 32.86L79.62 32.71C79.6 32.55 79.55 32.4 79.47 32.26C79.41 32.1 79.27 31.91 79.05 31.69C78.59 31.33 78.07 31.06 77.49 30.88C76.91 30.68 76.35 30.58 75.81 30.58C75.01 30.58 74.32 30.72 73.74 31C73.16 31.28 72.87 31.71 72.87 32.29C72.87 32.59 72.97 32.89 73.17 33.19C73.39 33.47 73.78 33.76 74.34 34.06C74.9 34.34 75.7 34.63 76.74 34.93C77.88 35.29 78.79 35.66 79.47 36.04C80.17 36.4 80.67 36.82 80.97 37.3C81.29 37.78 81.45 38.35 81.45 39.01C81.45 39.77 81.24 40.48 80.82 41.14C80.42 41.8 79.8 42.33 78.96 42.73C78.12 43.11 77.06 43.3 75.78 43.3ZM83.19 23.05H85.26H85.56V23.26C85.44 23.38 85.36 23.51 85.32 23.65C85.3 23.79 85.29 24.03 85.29 24.37V31.72C85.65 31.16 86.07 30.68 86.55 30.28C87.05 29.86 87.57 29.54 88.11 29.32C88.67 29.08 89.23 28.96 89.79 28.96C90.61 28.96 91.33 29.15 91.95 29.53C92.59 29.91 93.08 30.52 93.42 31.36C93.78 32.2 93.96 33.31 93.96 34.69V43H91.86V34.75C91.86 33.79 91.75 33.03 91.53 32.47C91.31 31.89 91.01 31.48 90.63 31.24C90.25 30.98 89.82 30.85 89.34 30.85C88.98 30.85 88.61 30.91 88.23 31.03C87.85 31.15 87.48 31.33 87.12 31.57C86.78 31.81 86.47 32.11 86.19 32.47C85.91 32.81 85.69 33.2 85.53 33.64C85.37 34.08 85.29 34.57 85.29 35.11V43H83.19V23.05Z" fill="black"/>
</svg>
