<svg width="140" height="72" viewBox="0 0 140 72" fill="none" xmlns="http://www.w3.org/2000/svg">
<path d="M0.5 19C0.5 15.9624 2.96243 13.5 6 13.5H134C137.038 13.5 139.5 15.9624 139.5 19V66C139.5 69.0376 137.038 71.5 134 71.5H6C2.96244 71.5 0.5 69.0376 0.5 66V19Z" fill="#FDE068" stroke="black"/>
<path d="M0.5 6C0.5 2.96244 2.96243 0.5 6 0.5H134C137.038 0.5 139.5 2.96243 139.5 6V53C139.5 56.0376 137.038 58.5 134 58.5H6C2.96244 58.5 0.5 56.0376 0.5 53V6Z" stroke="black"/>
<path d="M31.77 42V40.26H35.82V23.79H31.95V22.05H38.01V40.26H42.03V42H31.77ZM47.85 42.24C46.61 42.24 45.51 41.94 44.55 41.34C43.61 40.72 42.87 39.88 42.33 38.82C41.79 37.74 41.52 36.51 41.52 35.13C41.52 33.73 41.79 32.5 42.33 31.44C42.87 30.36 43.61 29.52 44.55 28.92C45.51 28.3 46.61 27.99 47.85 27.99C49.09 27.99 50.18 28.3 51.12 28.92C52.08 29.52 52.83 30.36 53.37 31.44C53.91 32.5 54.18 33.73 54.18 35.13C54.18 36.51 53.91 37.74 53.37 38.82C52.83 39.88 52.08 40.72 51.12 41.34C50.18 41.94 49.09 42.24 47.85 42.24ZM47.85 40.44C48.65 40.44 49.35 40.21 49.95 39.75C50.55 39.29 51.02 38.66 51.36 37.86C51.72 37.06 51.9 36.14 51.9 35.1C51.9 34.06 51.72 33.14 51.36 32.34C51.02 31.54 50.55 30.92 49.95 30.48C49.35 30.02 48.65 29.79 47.85 29.79C47.07 29.79 46.37 30.02 45.75 30.48C45.15 30.92 44.67 31.54 44.31 32.34C43.97 33.14 43.8 34.06 43.8 35.1C43.8 36.14 43.97 37.06 44.31 37.86C44.67 38.66 45.15 39.29 45.75 39.75C46.37 40.21 47.07 40.44 47.85 40.44ZM60.81 47.16C59.85 47.16 58.98 47.08 58.2 46.92C57.44 46.78 56.78 46.56 56.22 46.26C55.68 45.98 55.26 45.62 54.96 45.18C54.68 44.74 54.54 44.22 54.54 43.62C54.54 43.06 54.66 42.56 54.9 42.12C55.14 41.68 55.45 41.32 55.83 41.04C56.23 40.74 56.66 40.52 57.12 40.38L58.02 40.92C57.66 41.14 57.37 41.36 57.15 41.58C56.93 41.8 56.77 42.05 56.67 42.33C56.57 42.63 56.52 42.98 56.52 43.38C56.52 43.72 56.62 44.02 56.82 44.28C57.02 44.56 57.3 44.79 57.66 44.97C58.04 45.15 58.49 45.29 59.01 45.39C59.55 45.49 60.16 45.54 60.84 45.54C61.76 45.54 62.5 45.44 63.06 45.24C63.64 45.06 64.07 44.8 64.35 44.46C64.63 44.14 64.77 43.77 64.77 43.35C64.77 42.91 64.69 42.55 64.53 42.27C64.37 41.99 64.04 41.78 63.54 41.64C63.04 41.5 62.28 41.43 61.26 41.43C60.56 41.43 59.92 41.4 59.34 41.34C58.76 41.28 58.24 41.18 57.78 41.04C57.32 40.9 56.93 40.73 56.61 40.53C56.31 40.31 56.08 40.05 55.92 39.75C55.76 39.45 55.68 39.1 55.68 38.7C55.68 38.18 55.82 37.68 56.1 37.2C56.4 36.72 56.8 36.26 57.3 35.82L58.32 36.63C58.12 36.85 57.96 37.05 57.84 37.23C57.72 37.39 57.63 37.55 57.57 37.71C57.53 37.85 57.51 38.01 57.51 38.19C57.51 38.51 57.63 38.77 57.87 38.97C58.13 39.17 58.57 39.32 59.19 39.42C59.81 39.5 60.65 39.54 61.71 39.54C62.77 39.54 63.63 39.63 64.29 39.81C64.95 39.97 65.45 40.21 65.79 40.53C66.15 40.85 66.4 41.22 66.54 41.64C66.68 42.06 66.75 42.52 66.75 43.02C66.75 43.56 66.64 44.07 66.42 44.55C66.22 45.05 65.89 45.49 65.43 45.87C64.97 46.27 64.36 46.58 63.6 46.8C62.84 47.04 61.91 47.16 60.81 47.16ZM60.18 37.35C59.2 37.35 58.35 37.14 57.63 36.72C56.91 36.28 56.35 35.7 55.95 34.98C55.57 34.24 55.38 33.43 55.38 32.55C55.38 31.67 55.57 30.87 55.95 30.15C56.35 29.43 56.91 28.86 57.63 28.44C58.35 28 59.2 27.78 60.18 27.78C61.18 27.78 62.03 28 62.73 28.44C63.45 28.86 64 29.43 64.38 30.15C64.78 30.87 64.98 31.67 64.98 32.55C64.98 33.43 64.78 34.24 64.38 34.98C64 35.7 63.45 36.28 62.73 36.72C62.03 37.14 61.18 37.35 60.18 37.35ZM60.18 35.55C60.76 35.55 61.27 35.42 61.71 35.16C62.17 34.88 62.53 34.51 62.79 34.05C63.05 33.59 63.18 33.09 63.18 32.55C63.18 31.99 63.05 31.49 62.79 31.05C62.53 30.59 62.17 30.23 61.71 29.97C61.27 29.69 60.76 29.55 60.18 29.55C59.6 29.55 59.08 29.69 58.62 29.97C58.18 30.23 57.83 30.59 57.57 31.05C57.31 31.49 57.18 31.99 57.18 32.55C57.18 33.09 57.31 33.59 57.57 34.05C57.83 34.51 58.18 34.88 58.62 35.16C59.08 35.42 59.6 35.55 60.18 35.55ZM64.17 30.51L63.33 29.52C63.91 28.94 64.51 28.52 65.13 28.26C65.77 27.98 66.52 27.87 67.38 27.93L67.65 29.7C66.99 29.64 66.37 29.66 65.79 29.76C65.21 29.86 64.67 30.11 64.17 30.51ZM75.9 42.24C74.66 42.24 73.56 41.94 72.6 41.34C71.66 40.72 70.92 39.88 70.38 38.82C69.84 37.74 69.57 36.51 69.57 35.13C69.57 33.73 69.84 32.5 70.38 31.44C70.92 30.36 71.66 29.52 72.6 28.92C73.56 28.3 74.66 27.99 75.9 27.99C77.14 27.99 78.23 28.3 79.17 28.92C80.13 29.52 80.88 30.36 81.42 31.44C81.96 32.5 82.23 33.73 82.23 35.13C82.23 36.51 81.96 37.74 81.42 38.82C80.88 39.88 80.13 40.72 79.17 41.34C78.23 41.94 77.14 42.24 75.9 42.24ZM75.9 40.44C76.7 40.44 77.4 40.21 78 39.75C78.6 39.29 79.07 38.66 79.41 37.86C79.77 37.06 79.95 36.14 79.95 35.1C79.95 34.06 79.77 33.14 79.41 32.34C79.07 31.54 78.6 30.92 78 30.48C77.4 30.02 76.7 29.79 75.9 29.79C75.12 29.79 74.42 30.02 73.8 30.48C73.2 30.92 72.72 31.54 72.36 32.34C72.02 33.14 71.85 34.06 71.85 35.1C71.85 36.14 72.02 37.06 72.36 37.86C72.72 38.66 73.2 39.29 73.8 39.75C74.42 40.21 75.12 40.44 75.9 40.44ZM88.08 42.33C87.54 42.33 87.03 42.25 86.55 42.09C86.07 41.93 85.63 41.69 85.23 41.37C84.85 41.03 84.52 40.61 84.24 40.11C83.96 39.61 83.74 39.01 83.58 38.31C83.44 37.61 83.37 36.82 83.37 35.94L83.4 28.29H85.5V35.94C85.5 36.8 85.58 37.53 85.74 38.13C85.9 38.73 86.12 39.21 86.4 39.57C86.7 39.93 87.04 40.19 87.42 40.35C87.8 40.51 88.2 40.59 88.62 40.59C89.1 40.59 89.56 40.5 90 40.32C90.44 40.12 90.83 39.83 91.17 39.45C91.53 39.07 91.81 38.58 92.01 37.98C92.21 37.38 92.31 36.67 92.31 35.85V28.29H94.41V39.87C94.41 40.23 94.42 40.59 94.44 40.95C94.48 41.29 94.57 41.64 94.71 42H92.64C92.54 41.76 92.47 41.53 92.43 41.31C92.39 41.07 92.36 40.83 92.34 40.59C92.34 40.35 92.34 40.12 92.34 39.9C92.12 40.28 91.86 40.62 91.56 40.92C91.26 41.22 90.92 41.48 90.54 41.7C90.18 41.9 89.79 42.05 89.37 42.15C88.97 42.27 88.54 42.33 88.08 42.33ZM102.57 42.21C101.69 42.21 100.97 42.06 100.41 41.76C99.85 41.46 99.42 41 99.12 40.38C98.82 39.74 98.62 38.94 98.52 37.98C98.44 37.02 98.42 35.88 98.46 34.56L98.82 24.78L101.07 24.51L101.37 24.48L101.4 24.69C101.3 24.83 101.21 24.97 101.13 25.11C101.07 25.25 101.02 25.49 100.98 25.83L100.71 29.22L100.8 29.76L100.59 34.71C100.53 36.23 100.57 37.41 100.71 38.25C100.85 39.07 101.1 39.64 101.46 39.96C101.82 40.26 102.3 40.41 102.9 40.41C103.56 40.41 104.14 40.28 104.64 40.02C105.16 39.76 105.7 39.43 106.26 39.03L106.92 40.74C106.24 41.24 105.54 41.61 104.82 41.85C104.1 42.09 103.35 42.21 102.57 42.21ZM95.7 28.29H105.57V30.06H95.7V28.29Z" fill="black"/>
</svg>
